# Blender 4.5.3 LTS
# www.blender.org
mtllib ScaleHandle.mtl
o ScaleHandle
v 2.396515 -0.280000 -0.280000
v 2.396515 -0.056000 0.056000
v 2.396515 -0.056000 -0.056000
v 2.396515 -0.056000 0.056000
v 2.396515 -0.280000 -0.280000
v 2.396515 -0.280000 0.280000
v 2.396515 0.056000 -0.056000
v 0.169233 0.056000 -0.056000
v 0.169233 0.056000 0.056000
v 2.396515 0.056000 -0.056000
v 0.169233 0.056000 0.056000
v 2.396515 0.056000 0.056000
v 2.396515 0.280000 0.280000
v 2.396515 0.280000 -0.280000
v 2.396515 0.056000 -0.056000
v 2.396515 0.280000 0.280000
v 2.396515 0.056000 -0.056000
v 2.396515 0.056000 0.056000
v 2.396515 0.056000 -0.056000
v 2.396515 0.280000 -0.280000
v 2.396515 -0.056000 -0.056000
v 2.396515 0.280000 -0.280000
v 2.396515 -0.280000 -0.280000
v 2.396515 -0.056000 -0.056000
v 0.169233 -0.056000 0.056000
v 2.396515 -0.056000 0.056000
v 0.169233 0.056000 0.056000
v 2.396515 0.056000 0.056000
v 0.169233 0.056000 0.056000
v 2.396515 -0.056000 0.056000
v 2.396515 -0.056000 0.056000
v 0.169233 -0.056000 0.056000
v 0.169233 -0.056000 -0.056000
v 2.396515 -0.056000 0.056000
v 0.169233 -0.056000 -0.056000
v 2.396515 -0.056000 -0.056000
v 2.396515 0.280000 0.280000
v 2.396515 -0.056000 0.056000
v 2.396515 -0.280000 0.280000
v 2.396515 -0.056000 0.056000
v 2.396515 0.280000 0.280000
v 2.396515 0.056000 0.056000
v 2.396515 -0.056000 -0.056000
v 0.169233 -0.056000 -0.056000
v 2.396515 0.056000 -0.056000
v 0.169233 0.056000 -0.056000
v 2.396515 0.056000 -0.056000
v 0.169233 -0.056000 -0.056000
v 0.169233 0.056000 -0.056000
v 0.169233 -0.056000 -0.056000
v 0.169233 -0.056000 0.056000
v 0.169233 0.056000 0.056000
v 0.169233 0.056000 -0.056000
v 0.169233 -0.056000 0.056000
v 2.997844 -0.280000 0.280000
v 2.396515 -0.280000 0.280000
v 2.396515 -0.280000 -0.280000
v 2.997844 -0.280000 0.280000
v 2.396515 -0.280000 -0.280000
v 2.997844 -0.280000 -0.280000
v 2.997844 -0.280000 0.280000
v 2.396515 0.280000 0.280000
v 2.396515 -0.280000 0.280000
v 2.396515 0.280000 0.280000
v 2.997844 -0.280000 0.280000
v 2.997844 0.280000 0.280000
v 2.997844 -0.280000 -0.280000
v 2.997844 0.280000 0.280000
v 2.997844 -0.280000 0.280000
v 2.997844 0.280000 0.280000
v 2.997844 -0.280000 -0.280000
v 2.997844 0.280000 -0.280000
v 2.997844 0.280000 -0.280000
v 2.396515 0.280000 0.280000
v 2.997844 0.280000 0.280000
v 2.396515 0.280000 -0.280000
v 2.396515 0.280000 0.280000
v 2.997844 0.280000 -0.280000
v 2.396515 -0.280000 -0.280000
v 2.997844 0.280000 -0.280000
v 2.997844 -0.280000 -0.280000
v 2.997844 0.280000 -0.280000
v 2.396515 -0.280000 -0.280000
v 2.396515 0.280000 -0.280000
vn -1.0000 -0.0000 -0.0000
vn -0.0000 1.0000 -0.0000
vn -0.0000 -0.0000 1.0000
vn -0.0000 -1.0000 -0.0000
vn -0.0000 -0.0000 -1.0000
vn 1.0000 -0.0000 -0.0000
vt 0.125000 0.500000
vt 0.375000 0.750000
vt 0.375000 0.500000
vt 0.125000 0.750000
vt 0.625000 0.500000
vt 0.875000 0.500000
vt 0.875000 0.750000
vt 0.625000 0.750000
vt 0.625000 0.250000
vt 0.375000 0.250000
vt 0.375000 1.000000
vt 0.625000 1.000000
vt 0.375000 0.000000
vt 0.625000 0.000000
s 0
f 1/1/1 2/2/1 3/3/1
f 4/2/1 5/1/1 6/4/1
f 7/5/2 8/6/2 9/7/2
f 10/5/2 11/7/2 12/8/2
f 13/7/1 14/6/1 15/5/1
f 16/7/1 17/5/1 18/8/1
f 19/5/1 20/9/1 21/3/1
f 22/9/1 23/10/1 24/3/1
f 25/11/3 26/2/3 27/12/3
f 28/8/3 29/12/3 30/2/3
f 31/2/4 32/4/4 33/1/4
f 34/2/4 35/1/4 36/3/4
f 37/12/1 38/2/1 39/11/1
f 40/2/1 41/12/1 42/8/1
f 43/3/5 44/10/5 45/5/5
f 46/9/5 47/5/5 48/10/5
f 49/9/1 50/10/1 51/13/1
f 52/14/1 53/9/1 54/13/1
f 55/2/4 56/4/4 57/1/4
f 58/2/4 59/1/4 60/3/4
f 61/2/3 62/12/3 63/11/3
f 64/12/3 65/2/3 66/8/3
f 67/3/6 68/8/6 69/2/6
f 70/8/6 71/3/6 72/5/6
f 73/5/2 74/7/2 75/8/2
f 76/6/2 77/7/2 78/5/2
f 79/10/5 80/5/5 81/3/5
f 82/5/5 83/10/5 84/9/5
